<svg width="1014" height="601" viewBox="0 0 1014 601" fill="none" xmlns="http://www.w3.org/2000/svg">
<ellipse cx="141" cy="141.5" rx="141" ry="141.5" transform="matrix(-1 0 0 1 1014 216)" fill="white"/>
<ellipse cx="124.5" cy="125" rx="124.5" ry="125" transform="matrix(-1 0 0 1 249 249)" fill="white"/>
<ellipse cx="178" cy="178.5" rx="178" ry="178.5" transform="matrix(-1 0 0 1 843 0)" fill="white"/>
<path d="M150.971 372.898C139.789 337.52 136.989 300.026 142.793 263.38C148.597 226.733 162.845 191.939 184.412 161.748C205.979 131.557 234.272 106.795 267.057 89.4221C299.841 72.0486 336.217 62.5391 373.309 61.6451C410.401 60.7511 447.193 68.4972 480.776 84.2711C514.36 100.045 543.813 123.414 566.809 152.532C589.805 181.649 605.713 215.716 613.276 252.04C620.839 288.365 619.848 325.95 610.383 361.826L379.073 300.801L150.971 372.898Z" fill="white"/>
<rect width="983" height="223" rx="103" transform="matrix(-1 0 0 1 983 276)" fill="white"/>
</svg>
