<svg width="1014" height="499" viewBox="0 0 1014 499" fill="none" xmlns="http://www.w3.org/2000/svg">
<ellipse cx="141" cy="141.5" rx="141" ry="141.5" transform="matrix(-1 0 0 1 1014 216)" fill="#77818A"/>
<ellipse cx="124.5" cy="125" rx="124.5" ry="125" transform="matrix(-1 0 0 1 249 249)" fill="#77818A"/>
<ellipse cx="178" cy="178.5" rx="178" ry="178.5" transform="matrix(-1 0 0 1 843 0)" fill="#77818A"/>
<ellipse cx="213.5" cy="178.5" rx="213.5" ry="178.5" transform="matrix(-1 0 0 1 578 122)" fill="#77818A"/>
<path d="M267.057 222.5C255.874 187.122 136.989 300.026 142.793 263.38C148.597 226.733 162.845 191.939 184.412 161.748C205.979 131.557 234.272 106.796 267.057 89.4221C299.841 72.0486 336.217 62.5391 373.309 61.6451C410.401 60.7512 447.193 68.4973 480.776 84.2712C514.359 100.045 543.813 123.414 566.809 152.532C589.805 181.649 605.713 215.716 613.276 252.04C620.839 288.365 442.965 157.124 433.5 193L343.5 193L267.057 222.5Z" fill="#77818A"/>
<rect width="983" height="223" rx="103" transform="matrix(-1 0 0 1 983 276)" fill="#77818A"/>
</svg>
