<svg width="1014" height="601" viewBox="0 0 1014 601" fill="none" xmlns="http://www.w3.org/2000/svg">
<ellipse cx="141" cy="141.5" rx="141" ry="141.5" transform="matrix(-1 0 0 1 1014 216)" fill="white"/>
<ellipse cx="124.5" cy="125" rx="124.5" ry="125" transform="matrix(-1 0 0 1 249 249)" fill="white"/>
<ellipse cx="178" cy="178.5" rx="178" ry="178.5" transform="matrix(-1 0 0 1 843 0)" fill="white"/>
<path d="M150.971 372.898C139.789 337.52 136.989 300.026 142.793 263.38C148.597 226.733 162.845 191.939 184.412 161.748C205.979 131.557 234.272 106.795 267.057 89.4221C299.841 72.0486 336.217 62.5391 373.309 61.6451C410.401 60.7511 447.193 68.4972 480.776 84.2711C514.36 100.045 543.813 123.414 566.809 152.532C589.805 181.649 605.713 215.716 613.276 252.04C620.839 288.365 619.848 325.95 610.383 361.826L379.073 300.801L150.971 372.898Z" fill="white"/>
<rect width="983" height="223" rx="103" transform="matrix(-1 0 0 1 983 276)" fill="white"/>
<path d="M255.555 367V317.885H266.813V324.915C268.238 322.762 270.169 320.893 272.608 319.31C275.078 317.727 278.213 316.935 282.013 316.935C283.754 316.935 285.512 317.236 287.285 317.837C289.09 318.439 290.753 319.326 292.273 320.497C293.824 321.669 295.059 323.126 295.978 324.867C297.529 322.556 299.588 320.656 302.153 319.167C304.749 317.679 307.663 316.935 310.893 316.935C312.666 316.935 314.487 317.22 316.355 317.79C318.255 318.36 319.997 319.31 321.58 320.64C323.163 321.97 324.446 323.791 325.428 326.102C326.409 328.382 326.9 331.248 326.9 334.7V367H315.358V336.077C315.358 333.639 314.93 331.723 314.075 330.33C313.22 328.937 312.112 327.955 310.75 327.385C309.42 326.783 307.995 326.482 306.475 326.482C305.113 326.482 303.688 326.752 302.2 327.29C300.743 327.828 299.493 328.715 298.448 329.95C297.434 331.185 296.928 332.847 296.928 334.937V367H285.385V334.225C285.385 332.515 284.942 331.09 284.055 329.95C283.168 328.81 282.044 327.955 280.683 327.385C279.353 326.783 277.991 326.482 276.598 326.482C275.173 326.482 273.716 326.783 272.228 327.385C270.771 327.987 269.552 328.905 268.57 330.14C267.588 331.375 267.098 332.974 267.098 334.937V367H255.555ZM348.402 345.102C348.37 347.889 348.814 350.359 349.732 352.512C350.65 354.666 352.012 356.36 353.817 357.595C355.622 358.798 357.854 359.4 360.514 359.4C363.238 359.4 365.597 358.798 367.592 357.595C369.619 356.36 370.964 354.492 371.629 351.99H382.222C381.652 355.41 380.29 358.307 378.137 360.682C375.984 363.057 373.371 364.862 370.299 366.097C367.259 367.333 364.093 367.95 360.799 367.95C356.049 367.95 351.869 366.953 348.259 364.957C344.681 362.931 341.879 360.049 339.852 356.312C337.857 352.576 336.859 348.127 336.859 342.965C336.859 337.93 337.778 333.465 339.614 329.57C341.451 325.643 344.095 322.556 347.547 320.307C351.03 318.059 355.21 316.935 360.087 316.935C364.932 316.935 369.001 317.964 372.294 320.022C375.619 322.081 378.121 324.962 379.799 328.667C381.509 332.341 382.364 336.647 382.364 341.587V345.102H348.402ZM348.402 337.93H371.439C371.439 335.555 371.028 333.417 370.204 331.517C369.381 329.586 368.114 328.066 366.404 326.957C364.726 325.817 362.604 325.247 360.039 325.247C357.506 325.247 355.369 325.865 353.627 327.1C351.885 328.335 350.571 329.934 349.684 331.897C348.798 333.829 348.37 335.84 348.402 337.93ZM388.388 310.665V298.315H443.346V310.665H423.063V367H409.146V310.665H388.388ZM451.061 367V296.415H464.836V324.962C465.627 323.822 466.625 322.698 467.828 321.59C469.031 320.45 470.536 319.5 472.341 318.74C474.146 317.98 476.346 317.6 478.943 317.6C482.078 317.6 484.928 318.217 487.493 319.452C490.09 320.656 492.164 322.413 493.716 324.725C495.299 327.037 496.091 329.855 496.091 333.18V367H482.173V335.222C482.173 333.006 481.366 331.312 479.751 330.14C478.167 328.937 476.236 328.335 473.956 328.335C472.467 328.335 471.026 328.604 469.633 329.142C468.24 329.681 467.1 330.504 466.213 331.612C465.358 332.689 464.931 334.035 464.931 335.65V367H451.061ZM521.339 317.885V367H508.087V317.885H521.339ZM521.482 298.362V310.855H507.992V298.362H521.482ZM534.186 367V317.885H547.818V324.82C548.578 323.617 549.56 322.461 550.763 321.352C551.998 320.212 553.55 319.278 555.418 318.55C557.286 317.822 559.503 317.457 562.068 317.457C565.076 317.457 567.879 318.043 570.476 319.215C573.104 320.387 575.226 322.239 576.841 324.772C578.456 327.274 579.263 330.552 579.263 334.605V367H565.393V336.315C565.393 333.655 564.601 331.66 563.018 330.33C561.435 329 559.503 328.335 557.223 328.335C555.703 328.335 554.231 328.604 552.806 329.142C551.412 329.681 550.272 330.488 549.386 331.565C548.499 332.642 548.056 333.972 548.056 335.555V367H534.186ZM637.952 367H624.129L610.877 345.815L604.369 352.75V367H590.499V296.415H604.369V338.262L622.419 317.885H637.334L619.474 337.455L637.952 367ZM663.364 367.95C659.944 367.95 656.651 367.396 653.484 366.287C650.317 365.147 647.642 363.374 645.457 360.967C643.272 358.529 641.878 355.378 641.277 351.515H653.294C653.706 353.257 654.45 354.634 655.527 355.647C656.635 356.661 657.886 357.389 659.279 357.832C660.672 358.244 662.002 358.45 663.269 358.45C665.929 358.45 668.067 358.038 669.682 357.215C671.328 356.36 672.152 355.062 672.152 353.32C672.152 351.99 671.661 350.929 670.679 350.137C669.729 349.346 668.146 348.744 665.929 348.332L657.284 346.527C652.946 345.609 649.462 344.057 646.834 341.872C644.206 339.656 642.86 336.521 642.797 332.467C642.797 329.522 643.572 326.878 645.124 324.535C646.707 322.192 649.035 320.339 652.107 318.977C655.178 317.616 658.947 316.935 663.412 316.935C669.46 316.935 674.289 318.265 677.899 320.925C681.541 323.585 683.393 327.337 683.457 332.182H671.867C671.518 330.282 670.568 328.826 669.017 327.812C667.497 326.767 665.581 326.245 663.269 326.245C660.862 326.245 658.883 326.672 657.332 327.527C655.78 328.382 655.004 329.681 655.004 331.422C655.004 332.721 655.637 333.75 656.904 334.51C658.171 335.238 660.134 335.872 662.794 336.41L670.774 338.215C673.529 338.88 675.762 339.798 677.472 340.97C679.213 342.11 680.559 343.361 681.509 344.722C682.459 346.084 683.108 347.462 683.457 348.855C683.837 350.217 684.027 351.452 684.027 352.56C684.027 355.822 683.156 358.608 681.414 360.92C679.672 363.2 677.25 364.942 674.147 366.145C671.043 367.348 667.449 367.95 663.364 367.95ZM692.758 367V353.7H705.821V367H692.758ZM720.405 367V353.7H733.467V367H720.405ZM748.051 367V353.7H761.114V367H748.051Z" fill="#1C1C1C"/>
</svg>
