<svg width="353" height="209" viewBox="0 0 353 209" fill="none" xmlns="http://www.w3.org/2000/svg">
<ellipse cx="49.0333" cy="49.2071" rx="49.0333" ry="49.2071" transform="matrix(-1 0 0 1 352.622 75.1147)" fill="white"/>
<ellipse cx="43.2953" cy="43.4692" rx="43.2953" ry="43.4692" transform="matrix(-1 0 0 1 86.5906 86.5906)" fill="white"/>
<ellipse cx="61.9001" cy="62.074" rx="61.9001" ry="62.074" transform="matrix(-1 0 0 1 293.156 0)" fill="white"/>
<path d="M52.5007 129.677C48.6121 117.374 47.6385 104.335 49.6568 91.5913C51.6751 78.8474 56.6301 66.7477 64.1299 56.2485C71.6298 45.7493 81.4691 37.1386 92.8699 31.0969C104.271 25.0552 116.921 21.7483 129.82 21.4374C142.719 21.1265 155.513 23.8202 167.192 29.3057C178.87 34.7911 189.113 42.9179 197.11 53.0435C205.107 63.1692 210.639 75.0162 213.269 87.6481C215.899 100.28 215.554 113.35 212.263 125.826L131.824 104.605L52.5007 129.677Z" fill="white"/>
<rect width="341.842" height="77.5491" rx="38.7745" transform="matrix(-1 0 0 1 341.842 95.98)" fill="white"/>
<path d="M111.84 90.235H118.605V124.225H136.563V130H111.813L111.84 90.235ZM153.852 130.55C151.139 130.55 148.774 129.973 146.757 128.817C144.741 127.644 143.173 125.967 142.055 123.785C140.955 121.603 140.405 118.982 140.405 115.92C140.405 112.95 140.936 110.347 142 108.11C143.081 105.873 144.631 104.132 146.647 102.885C148.664 101.638 151.075 101.015 153.88 101.015C156.593 101.015 158.949 101.611 160.947 102.802C162.946 103.994 164.486 105.699 165.567 107.917C166.667 110.136 167.217 112.803 167.217 115.92C167.217 118.798 166.695 121.337 165.65 123.537C164.623 125.719 163.111 127.433 161.112 128.68C159.132 129.927 156.712 130.55 153.852 130.55ZM153.88 125.462C155.42 125.462 156.685 125.041 157.675 124.197C158.683 123.354 159.426 122.199 159.902 120.732C160.397 119.266 160.645 117.597 160.645 115.727C160.645 113.986 160.425 112.382 159.985 110.915C159.563 109.448 158.848 108.275 157.84 107.395C156.85 106.497 155.53 106.047 153.88 106.047C152.321 106.047 151.029 106.46 150.002 107.285C148.994 108.092 148.233 109.228 147.72 110.695C147.225 112.143 146.977 113.821 146.977 115.727C146.977 117.451 147.197 119.055 147.637 120.54C148.096 122.007 148.829 123.198 149.837 124.115C150.846 125.013 152.193 125.462 153.88 125.462ZM185.507 139.405C180.722 139.405 177.047 138.763 174.48 137.48C171.913 136.197 170.63 134.437 170.63 132.2C170.63 131.192 170.877 130.348 171.372 129.67C171.867 128.992 172.454 128.432 173.132 127.992C173.811 127.552 174.434 127.213 175.002 126.975C175.571 126.737 175.937 126.562 176.102 126.452C175.791 126.269 175.378 126.031 174.865 125.737C174.352 125.444 173.884 125.041 173.462 124.527C173.059 124.014 172.857 123.345 172.857 122.52C172.857 121.567 173.307 120.687 174.205 119.88C175.122 119.073 176.487 118.496 178.302 118.147C176.524 117.286 175.158 116.122 174.205 114.655C173.252 113.188 172.775 111.667 172.775 110.09C172.775 108.22 173.316 106.616 174.397 105.277C175.497 103.939 177.019 102.912 178.962 102.197C180.924 101.482 183.188 101.125 185.755 101.125C187.662 101.125 189.238 101.336 190.485 101.757C191.732 102.179 192.896 102.747 193.977 103.462C194.344 103.316 194.857 103.114 195.517 102.857C196.196 102.582 196.929 102.289 197.717 101.977C198.506 101.647 199.257 101.336 199.972 101.042C200.706 100.731 201.329 100.474 201.842 100.272L201.787 105.8L196.865 106.68C197.103 107.212 197.287 107.789 197.415 108.412C197.562 109.036 197.635 109.586 197.635 110.062C197.635 111.712 197.167 113.243 196.232 114.655C195.316 116.048 193.932 117.167 192.08 118.01C190.247 118.853 187.955 119.275 185.205 119.275C184.93 119.275 184.554 119.266 184.077 119.247C183.601 119.229 183.216 119.211 182.922 119.192C181.437 119.247 180.42 119.422 179.87 119.715C179.32 120.008 179.045 120.329 179.045 120.677C179.045 121.172 179.457 121.502 180.282 121.667C181.107 121.832 182.427 121.979 184.242 122.107C184.884 122.144 185.727 122.19 186.772 122.245C187.817 122.3 188.982 122.373 190.265 122.465C193.51 122.667 195.967 123.482 197.635 124.912C199.303 126.324 200.137 128.157 200.137 130.413C200.137 133.034 198.927 135.188 196.507 136.875C194.087 138.562 190.421 139.405 185.507 139.405ZM186.635 135.473C189.037 135.473 190.815 135.143 191.97 134.483C193.125 133.823 193.702 132.851 193.702 131.568C193.702 130.578 193.308 129.771 192.52 129.147C191.732 128.524 190.558 128.157 189 128.047L181.822 127.607C181.034 127.552 180.282 127.699 179.567 128.047C178.871 128.377 178.302 128.845 177.862 129.45C177.422 130.037 177.202 130.688 177.202 131.403C177.202 132.741 177.972 133.749 179.512 134.428C181.052 135.124 183.427 135.473 186.635 135.473ZM185.425 115.342C187.167 115.342 188.578 114.902 189.66 114.022C190.742 113.124 191.282 111.859 191.282 110.227C191.282 108.541 190.742 107.23 189.66 106.295C188.578 105.342 187.167 104.865 185.425 104.865C183.647 104.865 182.207 105.342 181.107 106.295C180.026 107.248 179.485 108.559 179.485 110.227C179.485 111.804 180.007 113.051 181.052 113.967C182.097 114.884 183.555 115.342 185.425 115.342ZM214.109 101.565V130H207.674V101.565H214.109ZM214.191 90.2625V96.5875H207.564V90.2625H214.191ZM222.46 130V101.565H229.005V105.635C229.445 104.902 230.041 104.196 230.793 103.517C231.563 102.839 232.507 102.289 233.625 101.867C234.743 101.446 236.054 101.235 237.558 101.235C239.318 101.235 240.949 101.583 242.453 102.28C243.974 102.977 245.193 104.067 246.11 105.552C247.045 107.037 247.513 108.953 247.513 111.3V130H240.803V112.097C240.803 110.227 240.289 108.843 239.263 107.945C238.236 107.028 236.943 106.57 235.385 106.57C234.322 106.57 233.313 106.753 232.36 107.12C231.407 107.468 230.628 108.009 230.023 108.742C229.436 109.457 229.143 110.356 229.143 111.437V130H222.46Z" fill="#1C1C1C"/>
</svg>
